<?xml version="1.0" standalone="no"?>
<!DOCTYPE svg PUBLIC "-//W3C//DTD SVG 20010904//EN"
 "http://www.w3.org/TR/2001/REC-SVG-20010904/DTD/svg10.dtd">
<svg version="1.0" xmlns="http://www.w3.org/2000/svg"
 width="272.000000pt" height="272.000000pt" viewBox="0 0 272.000000 272.000000"
 preserveAspectRatio="xMidYMid meet">
<metadata>
Created by potrace 1.14, written by Peter Selinger 2001-2017
</metadata>
<g transform="translate(0.000000,272.000000) scale(0.100000,-0.100000)"
fill="#000000" stroke="none">
<path d="M808 1784 c-4 -3 -2 -17 4 -30 10 -21 17 -23 52 -20 23 2 47 5 54 5
7 1 11 5 8 10 -3 5 -15 7 -26 4 -11 -3 -20 0 -20 6 0 6 -10 11 -23 11 -13 0
-28 5 -33 10 -6 6 -13 8 -16 4z m23 -21 c13 -16 12 -17 -3 -4 -17 13 -22 21
-14 21 2 0 10 -8 17 -17z"/>
<path d="M750 1770 c-10 -6 -9 -9 1 -13 10 -4 9 -6 -3 -6 -12 -1 -15 -6 -11
-17 3 -9 9 -12 12 -7 9 12 31 15 31 4 0 -5 -6 -12 -12 -14 -7 -3 1 -6 17 -6
19 0 25 2 17 8 -7 4 -12 12 -11 17 5 30 -16 49 -41 34z"/>
<path d="M870 1719 c-36 -5 -39 -7 -15 -9 47 -4 89 1 100 11 9 9 -1 9 -85 -2z"/>
<path d="M698 1703 c7 -3 16 -2 19 1 4 3 -2 6 -13 5 -11 0 -14 -3 -6 -6z"/>
<path d="M740 1699 c0 -28 19 -42 59 -46 44 -4 47 -2 31 28 -11 19 -60 28 -60
10 0 -4 10 -8 22 -7 11 0 23 -4 25 -10 3 -8 -6 -10 -29 -5 -18 4 -33 12 -33
18 0 6 -3 15 -7 19 -5 4 -8 1 -8 -7z"/>
<path d="M967 1704 c-3 -3 -1 -16 5 -29 7 -15 16 -21 29 -18 25 7 24 23 -1 23
-13 0 -18 5 -14 15 6 15 -7 21 -19 9z"/>
<path d="M850 1689 c0 -5 12 -9 28 -10 l27 -1 -25 -7 c-39 -11 4 -26 63 -22
28 2 19 21 -10 22 l-28 1 25 8 c31 10 27 12 -32 15 -27 2 -48 -1 -48 -6z"/>
<path d="M705 1670 c3 -5 8 -10 11 -10 2 0 4 5 4 10 0 6 -5 10 -11 10 -5 0 -7
-4 -4 -10z"/>
<path d="M1014 1646 c-23 -18 -12 -33 16 -20 12 6 17 14 12 21 -7 10 -12 10
-28 -1z"/>
<path d="M700 1640 c0 -5 5 -10 10 -10 6 0 10 5 10 10 0 6 -4 10 -10 10 -5 0
-10 -4 -10 -10z"/>
<path d="M754 1632 c2 -4 22 -9 43 -10 21 -2 42 -7 47 -12 5 -5 -13 -6 -43 -3
-48 4 -67 -6 -41 -22 6 -3 10 -1 10 5 0 6 5 8 12 4 21 -13 90 -14 84 -1 -3 7
-9 19 -12 27 -3 11 -21 16 -55 18 -27 1 -48 -2 -45 -6z"/>
<path d="M895 1606 c9 -21 20 -30 34 -29 12 0 35 1 52 2 20 1 29 5 26 14 -2 8
-20 11 -50 10 -25 -2 -48 1 -51 6 -4 5 14 8 39 6 30 -1 44 2 42 9 -2 6 -26 11
-54 12 l-51 1 13 -31z"/>
<path d="M670 1620 c0 -5 5 -10 11 -10 5 0 7 5 4 10 -3 6 -8 10 -11 10 -2 0
-4 -4 -4 -10z"/>
<path d="M700 1610 c0 -5 5 -10 10 -10 6 0 10 5 10 10 0 6 -4 10 -10 10 -5 0
-10 -4 -10 -10z"/>
<path d="M1025 1610 c-3 -5 -4 -14 -1 -19 9 -13 46 -1 46 15 0 16 -36 19 -45
4z"/>
<path d="M1241 1545 c1 -57 4 -65 21 -65 15 0 18 6 15 35 -5 40 5 38 22 -4 8
-17 22 -31 36 -33 22 -5 23 -3 22 64 0 57 -3 68 -16 66 -11 -2 -16 -14 -15
-36 0 -17 -1 -32 -2 -32 -1 0 -12 16 -24 35 -13 20 -30 35 -41 35 -17 0 -19
-7 -18 -65z"/>
<path d="M1372 1543 l3 -67 33 1 c59 2 62 3 62 17 0 17 -24 28 -45 20 -8 -4
-15 -1 -15 5 0 6 14 11 30 11 20 0 30 5 30 15 0 10 -10 15 -30 15 -16 0 -30 4
-30 9 0 5 12 8 28 7 15 -2 30 1 33 6 3 5 11 -16 18 -47 11 -49 16 -56 34 -53
14 2 23 11 25 26 2 12 7 22 12 22 5 0 10 -10 12 -22 2 -14 11 -24 24 -26 18
-3 22 4 28 40 6 35 9 40 17 26 6 -11 22 -18 39 -18 17 0 30 -4 30 -9 0 -5 -15
-8 -32 -7 -26 1 -33 -3 -33 -18 0 -18 22 -23 84 -17 15 2 23 52 10 67 -6 8
-23 14 -37 14 -40 0 -11 14 40 19 4 1 5 8 1 16 -4 13 -19 15 -71 13 -60 -3
-65 -5 -69 -27 -5 -36 -10 -36 -18 -2 -9 43 -41 42 -54 -1 l-9 -33 -7 33 -7
32 -70 0 -69 0 3 -67z"/>
<path d="M2125 1575 c-32 -31 -32 -59 0 -91 27 -27 66 -27 93 0 23 23 19 76
-7 98 -31 25 -57 23 -86 -7z"/>
<path d="M600 1560 c0 -5 5 -10 10 -10 6 0 10 5 10 10 0 6 -4 10 -10 10 -5 0
-10 -4 -10 -10z"/>
<path d="M630 1550 c0 -5 5 -10 10 -10 6 0 10 5 10 10 0 6 -4 10 -10 10 -5 0
-10 -4 -10 -10z"/>
<path d="M660 1544 c0 -8 5 -12 10 -9 6 3 10 10 10 16 0 5 -4 9 -10 9 -5 0
-10 -7 -10 -16z"/>
<path d="M1779 1531 c-17 -17 -29 -40 -29 -55 0 -21 -5 -25 -32 -28 l-33 -3 2
-97 3 -98 -34 0 -34 0 0 83 c0 124 2 117 -36 117 l-34 0 1 -130 c0 -86 4 -130
11 -131 6 -1 65 -2 131 -3 93 -2 126 2 145 13 33 21 50 37 50 50 0 5 4 12 9
15 5 3 8 -12 7 -34 0 -22 2 -41 7 -41 9 -2 45 -2 55 0 5 1 8 68 7 149 -1 130
-3 151 -20 174 -26 34 -56 48 -106 48 -31 0 -47 -7 -70 -29z m105 -44 c13 -9
19 -30 21 -71 4 -57 3 -58 -13 -35 -9 13 -24 30 -34 37 -31 23 -40 49 -22 66
19 19 25 20 48 3z m-71 -120 c27 -19 30 -61 6 -91 -21 -27 -58 -35 -60 -13 -1
17 -1 89 0 105 1 16 32 16 54 -1z"/>
<path d="M530 1539 c0 -5 5 -7 10 -4 6 3 10 8 10 11 0 2 -4 4 -10 4 -5 0 -10
-5 -10 -11z"/>
<path d="M690 1541 c0 -17 18 -21 24 -6 3 9 0 15 -9 15 -8 0 -15 -4 -15 -9z"/>
<path d="M1066 1541 c-16 -6 -16 -9 -5 -22 8 -8 15 -30 17 -49 1 -19 7 -37 13
-41 7 -4 7 -9 2 -12 -5 -3 -7 -21 -5 -40 3 -28 7 -34 23 -30 21 6 26 39 7 46
-10 4 -10 6 0 6 15 1 16 31 1 31 -8 0 -8 4 0 14 14 17 -1 31 -21 21 -7 -4 -5
0 6 9 18 14 14 42 -5 31 -5 -4 -9 -2 -9 4 0 5 5 11 12 13 6 2 8 10 4 16 -8 13
-13 14 -40 3z"/>
<path d="M590 1524 c0 -8 5 -12 10 -9 6 4 8 11 5 16 -9 14 -15 11 -15 -7z"/>
<path d="M759 1538 c-1 -2 -2 -28 -3 -58 -1 -31 -5 -60 -9 -66 -3 -6 -4 -14 0
-18 13 -13 23 -5 23 20 0 20 4 25 16 20 9 -3 22 -6 30 -6 8 0 14 -5 14 -10 0
-6 -11 -8 -25 -4 -19 5 -25 2 -25 -11 0 -10 7 -15 18 -13 11 2 20 -1 21 -7 2
-6 -15 -9 -39 -8 -29 2 -40 -1 -37 -10 2 -7 11 -12 20 -12 8 0 19 -4 23 -8 4
-4 13 -2 21 4 10 9 13 8 13 -1 0 -7 8 -10 20 -7 11 3 23 1 26 -4 4 -6 11 -6
19 1 9 7 10 21 5 45 -5 20 -4 38 1 41 5 3 7 10 3 15 -3 5 -8 26 -10 46 -6 46
-5 45 -54 48 -28 2 -40 -1 -40 -11 0 -8 9 -14 20 -14 11 0 20 -5 20 -11 0 -6
-9 -8 -20 -4 -14 5 -20 2 -20 -9 0 -9 9 -16 20 -16 11 0 20 -4 20 -9 0 -5 -12
-8 -27 -7 -26 3 -28 7 -27 45 1 22 -2 41 -7 41 -5 0 -9 -1 -10 -2z m106 -38
c3 -5 -1 -10 -9 -10 -9 0 -16 5 -16 10 0 6 4 10 9 10 6 0 13 -4 16 -10z m5
-41 c0 -5 -7 -9 -15 -9 -9 0 -12 6 -9 15 6 15 24 11 24 -6z m-7 -36 c2 -5 1
-21 -3 -38 l-6 -30 -5 38 c-4 33 3 50 14 30z"/>
<path d="M916 1523 c-3 -7 -1 -15 5 -18 5 -4 7 -11 4 -16 -4 -5 -3 -14 1 -21
4 -7 8 -39 8 -73 l1 -60 65 0 65 1 -1 39 c-4 139 -15 159 -88 159 -35 1 -57
-4 -60 -11z m39 -23 c3 -5 1 -10 -4 -10 -6 0 -11 5 -11 10 0 6 2 10 4 10 3 0
8 -4 11 -10z m55 0 c0 -5 -2 -10 -4 -10 -3 0 -8 5 -11 10 -3 6 -1 10 4 10 6 0
11 -4 11 -10z m-45 -40 c3 -5 1 -10 -4 -10 -6 0 -11 5 -11 10 0 6 2 10 4 10 3
0 8 -4 11 -10z"/>
<path d="M620 1516 c0 -9 5 -16 10 -16 6 0 10 4 10 9 0 6 -4 13 -10 16 -5 3
-10 -1 -10 -9z"/>
<path d="M650 1505 c0 -8 5 -15 10 -15 6 0 10 7 10 15 0 8 -4 15 -10 15 -5 0
-10 -7 -10 -15z"/>
<path d="M685 1491 c3 -11 1 -22 -5 -26 -5 -3 -10 -1 -10 4 0 6 -7 11 -16 11
-28 0 -9 -24 22 -27 26 -3 29 -1 30 27 1 20 -4 30 -13 30 -10 0 -12 -6 -8 -19z"/>
<path d="M580 1484 c0 -8 5 -12 10 -9 6 4 8 11 5 16 -9 14 -15 11 -15 -7z"/>
<path d="M475 1480 c-3 -5 -1 -10 4 -10 6 0 11 5 11 10 0 6 -2 10 -4 10 -3 0
-8 -4 -11 -10z"/>
<path d="M610 1481 c0 -6 5 -13 10 -16 6 -3 10 1 10 9 0 9 -4 16 -10 16 -5 0
-10 -4 -10 -9z"/>
<path d="M570 1444 c0 -8 5 -12 10 -9 6 4 8 11 5 16 -9 14 -15 11 -15 -7z"/>
<path d="M1268 1452 c-16 -2 -28 -8 -29 -13 0 -5 -1 -23 -2 -41 0 -22 -9 -40
-29 -56 -41 -34 -40 -90 3 -126 17 -14 38 -27 47 -27 9 -1 -5 -5 -32 -10 -59
-9 -87 -35 -89 -80 -2 -32 0 -34 36 -37 34 -3 37 -1 37 22 0 14 6 26 13 27 6
0 57 2 112 5 129 5 120 2 163 40 35 30 37 35 37 89 0 50 -3 60 -29 81 -15 14
-41 28 -57 31 -45 9 -37 33 11 33 38 0 40 2 40 30 0 17 -5 30 -12 30 -103 4
-199 4 -220 2z m72 -77 c0 -8 -7 -15 -15 -15 -16 0 -20 12 -8 23 11 12 23 8
23 -8z m0 -90 c0 -18 -22 -35 -46 -35 -27 0 -53 28 -36 39 18 11 82 8 82 -4z
m121 -13 c0 -4 2 -15 4 -24 6 -35 -27 -60 -86 -64 -45 -4 -50 -3 -29 6 39 17
59 40 66 76 5 29 9 32 25 23 10 -5 19 -13 20 -17z"/>
<path d="M2002 1452 c-9 -3 -12 -40 -12 -132 0 -108 3 -129 16 -134 9 -3 21
-3 26 1 7 3 8 1 4 -6 -4 -6 -15 -10 -24 -9 -12 2 -18 -5 -20 -24 -10 -84 107
-125 180 -63 31 26 33 27 86 27 30 1 32 3 32 34 0 32 -2 34 -37 35 l-38 1 31
7 c45 11 54 19 76 68 29 66 15 130 -38 172 -21 16 -41 21 -90 21 l-64 0 0
-100 0 -100 -34 0 -33 0 -1 88 c0 48 0 92 -1 98 -1 13 -39 23 -59 16z m263
-103 c14 -44 -16 -99 -54 -99 -6 0 -10 28 -10 69 l1 69 28 -10 c16 -5 32 -18
35 -29z m-124 -181 c7 -12 4 -21 -13 -32 -31 -22 -58 -20 -58 3 0 11 -4 23
-10 26 -21 13 -8 22 31 21 26 -1 44 -7 50 -18z"/>
<path d="M600 1441 c0 -6 5 -13 10 -16 6 -3 10 1 10 9 0 9 -4 16 -10 16 -5 0
-10 -4 -10 -9z"/>
<path d="M490 1430 c0 -5 5 -10 11 -10 5 0 7 5 4 10 -3 6 -8 10 -11 10 -2 0
-4 -4 -4 -10z"/>
<path d="M632 1429 c2 -6 8 -10 13 -10 5 0 11 4 13 10 2 6 -4 11 -13 11 -9 0
-15 -5 -13 -11z"/>
<path d="M676 1433 c-11 -11 -6 -23 9 -23 8 0 15 4 15 9 0 13 -16 22 -24 14z"/>
<path d="M560 1404 c0 -8 5 -12 10 -9 6 4 8 11 5 16 -9 14 -15 11 -15 -7z"/>
<path d="M590 1395 c0 -8 5 -15 10 -15 6 0 10 7 10 15 0 8 -4 15 -10 15 -5 0
-10 -7 -10 -15z"/>
<path d="M627 1394 c-8 -8 1 -24 14 -24 5 0 9 7 9 15 0 15 -12 20 -23 9z"/>
<path d="M660 1385 c0 -8 7 -15 15 -15 8 0 15 7 15 15 0 8 -7 15 -15 15 -8 0
-15 -7 -15 -15z"/>
<path d="M535 1331 c-6 -11 9 -23 19 -14 9 9 7 23 -3 23 -6 0 -12 -4 -16 -9z"/>
<path d="M425 1320 c3 -5 8 -10 11 -10 2 0 4 5 4 10 0 6 -5 10 -11 10 -5 0 -7
-4 -4 -10z"/>
<path d="M575 1321 c-6 -11 9 -23 19 -14 9 9 7 23 -3 23 -6 0 -12 -4 -16 -9z"/>
<path d="M460 1310 c0 -5 5 -10 11 -10 5 0 7 5 4 10 -3 6 -8 10 -11 10 -2 0
-4 -4 -4 -10z"/>
<path d="M610 1304 c0 -17 22 -14 28 4 2 7 -3 12 -12 12 -9 0 -16 -7 -16 -16z"/>
<path d="M654 1306 c-8 -22 3 -33 18 -18 9 9 9 15 0 24 -9 9 -13 7 -18 -6z"/>
<path d="M736 1303 c-12 -12 -6 -33 9 -33 8 0 15 6 15 14 0 17 -14 28 -24 19z"/>
<path d="M527 1294 c-8 -8 1 -24 14 -24 5 0 9 7 9 15 0 15 -12 20 -23 9z"/>
<path d="M770 1274 c0 -21 -3 -24 -27 -18 -23 6 -25 4 -20 -15 3 -11 1 -24 -5
-27 -5 -3 -7 -12 -4 -20 3 -7 1 -16 -3 -18 -4 -3 -8 -18 -7 -33 1 -26 5 -28
41 -30 22 -1 40 -2 40 -3 0 -1 12 -3 28 -5 20 -3 27 1 27 14 0 10 3 21 7 25 4
3 8 14 10 24 6 31 8 37 16 50 5 6 5 17 2 22 -4 6 -1 17 5 25 10 12 9 16 -2 20
-8 3 -19 5 -24 4 -5 -1 -11 -1 -14 0 -3 1 -20 4 -37 5 -29 3 -33 1 -33 -20z
m40 -14 c0 -5 -8 -10 -17 -10 -15 0 -16 2 -3 10 19 12 20 12 20 0z m40 -4 c0
-3 -4 -8 -10 -11 -5 -3 -10 -1 -10 4 0 6 5 11 10 11 6 0 10 -2 10 -4z m-94
-43 c-10 -10 -19 5 -10 18 6 11 8 11 12 0 2 -7 1 -15 -2 -18z m44 7 c0 -5 -5
-10 -11 -10 -5 0 -7 5 -4 10 3 6 8 10 11 10 2 0 4 -4 4 -10z m-45 -40 c-3 -5
-10 -10 -16 -10 -5 0 -9 5 -9 10 0 6 7 10 16 10 8 0 12 -4 9 -10z m40 0 c-3
-5 -11 -10 -16 -10 -6 0 -7 5 -4 10 3 6 11 10 16 10 6 0 7 -4 4 -10z m35 -4
c0 -3 -4 -8 -10 -11 -5 -3 -10 -1 -10 4 0 6 5 11 10 11 6 0 10 -2 10 -4z m-80
-30 c0 -11 -19 -15 -25 -6 -3 5 1 10 9 10 9 0 16 -2 16 -4z m30 -6 c0 -5 -4
-10 -10 -10 -5 0 -10 5 -10 10 0 6 5 10 10 10 6 0 10 -4 10 -10z m40 -4 c0 -3
-4 -8 -10 -11 -5 -3 -10 -1 -10 4 0 6 5 11 10 11 6 0 10 -2 10 -4z"/>
<path d="M1071 1242 c-7 -30 -21 -70 -32 -89 -11 -20 -18 -37 -15 -40 7 -8 47
17 41 27 -3 4 -1 10 4 12 5 1 11 10 13 18 2 8 6 18 11 21 7 5 11 20 21 66 1 7
5 16 9 19 14 14 7 24 -16 22 -20 -2 -25 -11 -36 -56z"/>
<path d="M570 1275 c0 -8 5 -15 10 -15 6 0 10 7 10 15 0 8 -4 15 -10 15 -5 0
-10 -7 -10 -15z"/>
<path d="M926 1280 c-5 -7 -19 -71 -21 -90 0 -9 -3 -20 -7 -25 -3 -6 -8 -22
-11 -36 -7 -26 -6 -26 47 -26 30 0 58 2 63 6 17 11 50 90 57 131 1 9 5 21 9
27 4 6 3 14 -2 17 -11 7 -131 4 -135 -4z"/>
<path d="M450 1270 c0 -5 5 -10 11 -10 5 0 7 5 4 10 -3 6 -8 10 -11 10 -2 0
-4 -4 -4 -10z"/>
<path d="M602 1268 c6 -18 28 -21 28 -4 0 9 -7 16 -16 16 -9 0 -14 -5 -12 -12z"/>
<path d="M640 1255 c0 -8 7 -15 15 -15 8 0 15 7 15 15 0 8 -7 15 -15 15 -8 0
-15 -7 -15 -15z"/>
<path d="M520 1245 c0 -9 5 -15 11 -13 6 2 11 8 11 13 0 5 -5 11 -11 13 -6 2
-11 -4 -11 -13z"/>
<path d="M410 1239 c0 -5 5 -7 10 -4 6 3 10 8 10 11 0 2 -4 4 -10 4 -5 0 -10
-5 -10 -11z"/>
<path d="M560 1235 c0 -8 5 -15 10 -15 6 0 10 7 10 15 0 8 -4 15 -10 15 -5 0
-10 -7 -10 -15z"/>
<path d="M445 1230 c-3 -5 -1 -10 4 -10 6 0 11 5 11 10 0 6 -2 10 -4 10 -3 0
-8 -4 -11 -10z"/>
<path d="M597 1234 c-8 -8 1 -24 14 -24 5 0 9 7 9 15 0 15 -12 20 -23 9z"/>
<path d="M632 1218 c6 -18 25 -20 31 -3 5 10 0 15 -14 15 -12 0 -19 -5 -17
-12z"/>
<path d="M516 1211 c-4 -5 -2 -12 3 -15 5 -4 12 -2 15 3 4 5 2 12 -3 15 -5 4
-12 2 -15 -3z"/>
<path d="M552 1201 c2 -7 7 -12 11 -12 12 1 9 15 -3 20 -7 2 -11 -2 -8 -8z"/>
<path d="M445 1190 c3 -5 8 -10 11 -10 2 0 4 5 4 10 0 6 -5 10 -11 10 -5 0 -7
-4 -4 -10z"/>
<path d="M591 1188 c4 -33 -1 -41 -16 -28 -9 7 -18 10 -22 6 -9 -9 -2 -13 31
-22 25 -6 28 -4 23 9 -3 9 -2 19 4 22 11 7 3 25 -12 25 -5 0 -9 -6 -8 -12z"/>
<path d="M633 1175 c4 -8 2 -17 -3 -20 -16 -10 -12 -25 6 -25 10 0 14 6 11 15
-4 8 -2 17 3 20 16 10 12 25 -6 25 -10 0 -14 -6 -11 -15z"/>
<path d="M510 1171 c0 -6 5 -13 10 -16 6 -3 10 1 10 9 0 9 -4 16 -10 16 -5 0
-10 -4 -10 -9z"/>
<path d="M1558 1162 c-11 -2 -17 -16 -20 -48 -2 -25 1 -48 5 -51 16 -10 92 -4
95 6 5 14 62 14 62 1 0 -14 18 -13 34 2 9 9 10 20 3 43 -6 16 -11 36 -13 42
-6 24 -84 -22 -84 -49 0 -11 -7 -18 -17 -18 -11 0 -14 3 -7 8 16 11 23 37 14
52 -9 14 -40 19 -72 12z m37 -32 c3 -5 2 -10 -4 -10 -5 0 -13 5 -16 10 -3 6
-2 10 4 10 5 0 13 -4 16 -10z"/>
<path d="M1760 1160 c-13 -8 -13 -11 2 -26 16 -16 16 -19 -3 -46 -20 -27 -20
-28 -2 -28 11 0 24 5 31 12 9 9 15 9 24 0 7 -7 20 -12 31 -12 17 0 17 1 1 29
-15 25 -15 32 -4 46 9 11 16 13 24 5 5 -5 20 -10 33 -10 l24 0 -23 -31 c-19
-25 -20 -31 -8 -39 11 -7 22 2 43 35 16 25 27 51 24 58 -5 14 -63 17 -84 4 -7
-5 -13 -4 -13 2 0 13 -24 8 -44 -8 -14 -12 -18 -12 -29 2 -8 12 -16 14 -27 7z"/>
<path d="M510 1099 c0 -5 5 -7 10 -4 6 3 10 8 10 11 0 2 -4 4 -10 4 -5 0 -10
-5 -10 -11z"/>
<path d="M550 1096 c0 -9 5 -16 10 -16 6 0 10 4 10 9 0 6 -4 13 -10 16 -5 3
-10 -1 -10 -9z"/>
<path d="M580 1086 c0 -9 5 -16 10 -16 6 0 10 4 10 9 0 6 -4 13 -10 16 -5 3
-10 -1 -10 -9z"/>
<path d="M610 1080 c0 -5 6 -10 13 -10 7 0 8 -3 2 -8 -13 -9 -18 -42 -7 -42 5
0 9 6 10 13 0 6 4 22 7 35 6 16 3 22 -9 22 -9 0 -16 -4 -16 -10z"/>
<path d="M515 1070 c3 -5 8 -10 11 -10 2 0 4 5 4 10 0 6 -5 10 -11 10 -5 0 -7
-4 -4 -10z"/>
<path d="M681 1063 c0 -35 -8 -84 -15 -90 -3 -3 -6 -16 -5 -27 0 -16 4 -12 16
14 8 19 17 44 18 55 2 11 7 30 10 43 6 16 3 22 -8 22 -9 0 -16 -8 -16 -17z"/>
<path d="M729 1076 c-3 -11 -6 -21 -13 -41 -27 -74 -35 -99 -33 -102 2 -2 10
8 17 22 8 15 22 25 34 24 19 0 19 -1 3 -8 -10 -4 -19 -11 -19 -16 0 -6 -4 -9
-9 -7 -5 1 -9 -2 -9 -8 0 -5 7 -10 15 -10 18 0 97 98 89 111 -3 5 0 9 5 9 6 0
11 4 11 10 0 15 -53 8 -68 -10 -11 -13 -11 -13 -6 1 3 10 1 20 -5 24 -6 3 -12
4 -12 1z m61 -30 c0 -3 -4 -8 -10 -11 -5 -3 -10 -1 -10 4 0 6 5 11 10 11 6 0
10 -2 10 -4z m-52 -36 c-7 -10 -14 -18 -15 -16 -6 6 9 36 18 36 5 0 4 -9 -3
-20z m27 -9 c-3 -6 -11 -11 -16 -11 -5 0 -4 6 3 14 14 16 24 13 13 -3z"/>
<path d="M958 1075 c-2 -3 -26 -6 -51 -6 -44 -2 -49 -5 -69 -41 -12 -21 -26
-38 -30 -38 -5 0 -7 -4 -3 -9 3 -5 -3 -12 -14 -16 -11 -3 -24 -12 -31 -19 -9
-12 -5 -13 22 -6 69 18 84 23 102 39 10 9 21 15 24 13 3 -2 9 5 13 15 4 10 8
12 8 5 1 -7 6 -10 12 -7 5 4 8 12 6 18 -2 7 2 20 11 30 13 15 14 35 0 22z"/>
<path d="M971 1055 c-13 -14 -20 -25 -17 -25 12 0 56 32 56 41 0 16 -14 9 -39
-16z"/>
<path d="M548 1063 c7 -3 16 -2 19 1 4 3 -2 6 -13 5 -11 0 -14 -3 -6 -6z"/>
<path d="M550 1040 c0 -5 5 -10 11 -10 5 0 7 5 4 10 -3 6 -8 10 -11 10 -2 0
-4 -4 -4 -10z"/>
<path d="M580 1030 c0 -5 5 -10 11 -10 5 0 7 5 4 10 -3 6 -8 10 -11 10 -2 0
-4 -4 -4 -10z"/>
<path d="M530 1001 c0 -6 4 -13 10 -16 6 -3 7 1 4 9 -7 18 -14 21 -14 7z"/>
<path d="M610 988 c0 -13 4 -29 9 -37 6 -10 9 -2 8 22 -1 39 -17 53 -17 15z"/>
<path d="M590 970 c0 -11 4 -20 9 -20 5 0 7 9 4 20 -3 11 -7 20 -9 20 -2 0 -4
-9 -4 -20z"/>
</g>
</svg>
