<svg width="24" height="24" viewBox="0 0 24 24" fill="none" xmlns="http://www.w3.org/2000/svg">
<path d="M10.0303 9.46967C10.3232 9.76256 10.3232 10.2374 10.0303 10.5303L9.31066 11.25H16.5C16.9142 11.25 17.25 11.5858 17.25 12C17.25 12.4142 16.9142 12.75 16.5 12.75L9.31066 12.75L10.0303 13.4697C10.3232 13.7626 10.3232 14.2374 10.0303 14.5303C9.73744 14.8232 9.26256 14.8232 8.96967 14.5303L6.96967 12.5303C6.89776 12.4584 6.84351 12.3755 6.80691 12.2871C6.77051 12.1993 6.7503 12.1031 6.75 12.0022L6.75 12L6.75 11.9978C6.75057 11.8066 6.8238 11.6155 6.96967 11.4697L8.96967 9.46967C9.26256 9.17678 9.73744 9.17678 10.0303 9.46967Z" fill="#EBEBEB"/>
<path fill-rule="evenodd" clip-rule="evenodd" d="M22 12C22 17.5228 17.5228 22 12 22C6.47715 22 2 17.5228 2 12C2 6.47715 6.47715 2 12 2C17.5228 2 22 6.47715 22 12ZM20.5 12C20.5 16.6944 16.6944 20.5 12 20.5C7.30558 20.5 3.5 16.6944 3.5 12C3.5 7.30558 7.30558 3.5 12 3.5C16.6944 3.5 20.5 7.30558 20.5 12Z" fill="#EBEBEB"/>
</svg>
