<svg width="24" height="24" viewBox="0 0 24 24" fill="none" xmlns="http://www.w3.org/2000/svg">
<path d="M13.9697 9.46967C13.6768 9.76256 13.6768 10.2374 13.9697 10.5303L14.6893 11.25H7.5C7.08579 11.25 6.75 11.5858 6.75 12C6.75 12.4142 7.08579 12.75 7.5 12.75L14.6893 12.75L13.9697 13.4697C13.6768 13.7626 13.6768 14.2374 13.9697 14.5303C14.2626 14.8232 14.7374 14.8232 15.0303 14.5303L17.0303 12.5303C17.1022 12.4584 17.1565 12.3755 17.1931 12.2871C17.2295 12.1993 17.2497 12.1031 17.25 12.0022L17.25 12L17.25 11.9978C17.2494 11.8066 17.1762 11.6155 17.0303 11.4697L15.0303 9.46967C14.7374 9.17678 14.2626 9.17678 13.9697 9.46967Z" fill="#EBEBEB"/>
<path fill-rule="evenodd" clip-rule="evenodd" d="M2 12C2 17.5228 6.47715 22 12 22C17.5228 22 22 17.5228 22 12C22 6.47715 17.5228 2 12 2C6.47715 2 2 6.47715 2 12ZM3.5 12C3.5 16.6944 7.30558 20.5 12 20.5C16.6944 20.5 20.5 16.6944 20.5 12C20.5 7.30558 16.6944 3.5 12 3.5C7.30558 3.5 3.5 7.30558 3.5 12Z" fill="#EBEBEB"/>
</svg>
