<svg width="24" height="24" viewBox="0 0 24 24" fill="none" xmlns="http://www.w3.org/2000/svg">
<path d="M2 15.6073V4.12021C2 3.52318 2.51916 3.06228 3.10876 3.15616C4.19424 3.32899 5.84824 3.64786 7 4.1251C8.48374 4.73989 10.2737 6.08976 11.259 6.88347C11.2531 6.92152 11.25 6.96052 11.25 7.00024L11.25 20.3762C10.2628 19.5815 8.47921 18.238 7 17.6251C5.76524 17.1135 3.95324 16.7839 2.88335 16.6211C2.38055 16.5446 2 16.1159 2 15.6073Z" fill="#fb6002"/>
<path fill-rule="evenodd" clip-rule="evenodd" d="M12.75 20.2927C13.6333 19.4915 15.145 18.2203 16.4444 17.6251C17.5827 17.1037 19.8405 16.7619 21.099 16.6031C21.6101 16.5386 22 16.107 22 15.5919V4.10112C22 3.51092 21.4927 3.05121 20.9075 3.12773C19.6223 3.29576 17.5271 3.62921 16.4444 4.1251C15.1334 4.72558 13.6065 6.01409 12.7267 6.81387C12.7419 6.87346 12.75 6.9359 12.75 7.00024L12.75 20.2927ZM18.7372 8.71176C19.1301 8.58077 19.3425 8.15603 19.2115 7.76307C19.0805 7.37012 18.6558 7.15775 18.2628 7.28873C17.5622 7.52227 16.7002 8.02933 15.9497 8.52406C15.1823 9.02993 14.4637 9.56878 14.0315 9.91459C13.708 10.1733 13.6556 10.6453 13.9143 10.9688C14.1731 11.2922 14.6451 11.3447 14.9685 11.0859C15.3696 10.765 16.051 10.2539 16.7753 9.77643C17.5165 9.28783 18.2378 8.87821 18.7372 8.71176ZM19.2115 11.7631C19.3425 12.156 19.1301 12.5808 18.7372 12.7118C18.2378 12.8782 17.5165 13.2878 16.7753 13.7764C16.051 14.2539 15.3696 14.765 14.9685 15.0859C14.6451 15.3447 14.1731 15.2922 13.9143 14.9688C13.6556 14.6453 13.708 14.1733 14.0315 13.9146C14.4637 13.5688 15.1823 13.0299 15.9497 12.5241C16.7002 12.0293 17.5622 11.5223 18.2628 11.2887C18.6558 11.1577 19.0805 11.3701 19.2115 11.7631Z" fill="#fb6002"/>
</svg>
