<svg width="37" height="36" viewBox="0 0 37 36" fill="none" xmlns="http://www.w3.org/2000/svg">
<circle cx="18" cy="18" r="18" fill="#D9D9D9"/>
<path d="M6 30L7.687 23.837C6.646 22.033 6.099 19.988 6.1 17.891C6.103 11.335 11.438 6 17.993 6C21.174 6.001 24.16 7.24 26.406 9.488C28.651 11.736 29.887 14.724 29.886 17.902C29.883 24.459 24.548 29.794 17.993 29.794C16.003 29.793 14.042 29.294 12.305 28.346L6 30ZM12.597 26.193C14.273 27.188 15.873 27.784 17.989 27.785C23.437 27.785 27.875 23.351 27.878 17.9C27.88 12.438 23.463 8.01 17.997 8.008C12.545 8.008 8.11 12.442 8.108 17.892C8.107 20.117 8.759 21.783 9.854 23.526L8.855 27.174L12.597 26.193ZM23.984 20.729C23.91 20.605 23.712 20.531 23.414 20.382C23.117 20.233 21.656 19.514 21.383 19.415C21.111 19.316 20.913 19.266 20.714 19.564C20.516 19.861 19.946 20.531 19.773 20.729C19.6 20.927 19.426 20.952 19.129 20.803C18.832 20.654 17.874 20.341 16.739 19.328C15.856 18.54 15.259 17.567 15.086 17.269C14.913 16.972 15.068 16.811 15.216 16.663C15.35 16.53 15.513 16.316 15.662 16.142C15.813 15.97 15.862 15.846 15.962 15.647C16.061 15.449 16.012 15.275 15.937 15.126C15.862 14.978 15.268 13.515 15.021 12.92C14.779 12.341 14.534 12.419 14.352 12.41L13.782 12.4C13.584 12.4 13.262 12.474 12.99 12.772C12.718 13.07 11.95 13.788 11.95 15.251C11.95 16.714 13.015 18.127 13.163 18.325C13.312 18.523 15.258 21.525 18.239 22.812C18.948 23.118 19.502 23.301 19.933 23.438C20.645 23.664 21.293 23.632 21.805 23.556C22.376 23.471 23.563 22.837 23.811 22.143C24.059 21.448 24.059 20.853 23.984 20.729Z" fill="#4E4E4E"/>
</svg>
