<svg width="37" height="36" viewBox="0 0 37 36" fill="none" xmlns="http://www.w3.org/2000/svg">
<circle cx="18" cy="18" r="18" fill="#D9D9D9"/>
<path d="M24.3952 13.0221C23.6005 13.0237 22.9543 12.3802 22.9528 11.5855C22.9512 10.7908 23.5947 10.1446 24.3898 10.143C25.1848 10.1415 25.831 10.7853 25.8326 11.58C25.8338 12.3748 25.1903 13.0206 24.3952 13.0221Z" fill="#4E4E4E"/>
<path fill-rule="evenodd" clip-rule="evenodd" d="M18.0115 24.161C14.6091 24.1676 11.8451 21.4149 11.8385 18.0117C11.8319 14.6092 14.5854 11.8448 17.9878 11.8382C21.3909 11.8316 24.1553 14.5859 24.1619 17.9879C24.1685 21.3912 21.4143 24.1544 18.0115 24.161ZM17.992 14.0004C15.7837 14.0042 13.9959 15.7986 13.9998 18.0074C14.0041 20.2166 15.7988 22.0039 18.0072 21.9996C20.2164 21.9954 22.0041 20.2014 21.9998 17.9922C21.9955 15.783 20.2008 13.9961 17.992 14.0004Z" fill="#4E4E4E"/>
<path fill-rule="evenodd" clip-rule="evenodd" d="M10.1192 6.64648C10.8813 6.34788 11.7533 6.14336 13.0302 6.0831C14.3101 6.02167 14.7187 6.00767 17.9769 6.00145C21.2358 5.99523 21.6444 6.00767 22.9244 6.06443C24.2016 6.11964 25.0741 6.32105 25.8377 6.61654C26.6277 6.92097 27.298 7.33078 27.966 7.99603C28.6339 8.66205 29.0453 9.33002 29.3536 10.1189C29.6518 10.8817 29.8563 11.7531 29.917 13.0307C29.9776 14.3102 29.9924 14.7185 29.9986 17.9771C30.0048 21.2353 29.9916 21.6443 29.9356 22.925C29.88 24.2014 29.679 25.0743 29.3835 25.8375C29.0783 26.6276 28.6693 27.2979 28.004 27.9659C27.3388 28.6342 26.6701 29.0452 25.8812 29.3539C25.1184 29.6517 24.2471 29.8562 22.9702 29.9173C21.6903 29.9779 21.2817 29.9923 18.0224 29.9985C14.7646 30.0048 14.356 29.9923 13.076 29.9359C11.7988 29.88 10.926 29.6789 10.1627 29.3838C9.37271 29.0782 8.70242 28.6696 8.03446 28.004C7.36611 27.3383 6.95439 26.67 6.64646 25.8811C6.34786 25.1186 6.14411 24.2469 6.08307 22.9705C6.02204 21.6901 6.00766 21.2811 6.00144 18.0229C5.9952 14.7644 6.00804 14.3561 6.06402 13.0762C6.1204 11.7985 6.32064 10.9261 6.61613 10.1621C6.92133 9.37239 7.33035 8.70248 7.99637 8.03413C8.6616 7.36616 9.33033 6.95402 10.1192 6.64648ZM10.9415 27.3679C11.3649 27.5308 12.0002 27.7252 13.1701 27.7761C14.4361 27.8309 14.8151 27.843 18.0185 27.8368C21.223 27.8309 21.6021 27.8173 22.8676 27.7579C24.0363 27.7022 24.6716 27.5055 25.0939 27.3407C25.6541 27.1218 26.0531 26.8601 26.4722 26.4406C26.8913 26.0195 27.1506 25.6194 27.3676 25.0591C27.5309 24.6354 27.7249 23.9996 27.7758 22.8297C27.8314 21.5646 27.8431 21.1851 27.8368 17.9809C27.831 14.7776 27.8174 14.3981 27.7572 13.1325C27.7019 11.9634 27.5056 11.3281 27.3404 10.9062C27.1215 10.3452 26.8606 9.94705 26.4399 9.52753C26.0192 9.10801 25.6191 8.84945 25.0581 8.6325C24.6355 8.46881 23.9994 8.27518 22.8303 8.22426C21.5643 8.16865 21.1849 8.15737 17.9808 8.1636C14.7774 8.16982 14.3984 8.18264 13.1328 8.24253C11.9633 8.29812 11.3288 8.49447 10.9057 8.65972C10.3459 8.87861 9.94696 9.13872 9.52746 9.5598C9.10871 9.98087 8.84938 10.3802 8.63244 10.9416C8.46993 11.3646 8.27434 12.0007 8.2242 13.1699C8.16898 14.4358 8.15733 14.8153 8.16355 18.0187C8.16939 21.2228 8.18298 21.6023 8.24248 22.8671C8.29729 24.037 8.49518 24.6715 8.65966 25.0949C8.87855 25.6544 9.13944 26.0533 9.55973 26.4729C9.98081 26.8908 10.3809 27.1509 10.9415 27.3679Z" fill="#4E4E4E"/>
</svg>
