<svg width="37" height="36" viewBox="0 0 37 36" fill="none" xmlns="http://www.w3.org/2000/svg">
<circle cx="18" cy="18" r="18" fill="#D9D9D9"/>
<g clip-path="url(#clip0_147_390)">
<path d="M29.2234 6H8.77187C7.79219 6 7 6.77344 7 7.72969V28.2656C7 29.2219 7.79219 30 8.77187 30H29.2234C30.2031 30 31 29.2219 31 28.2703V7.72969C31 6.77344 30.2031 6 29.2234 6ZM14.1203 26.4516H10.5578V14.9953H14.1203V26.4516ZM12.3391 13.4344C11.1953 13.4344 10.2719 12.5109 10.2719 11.3719C10.2719 10.2328 11.1953 9.30937 12.3391 9.30937C13.4781 9.30937 14.4016 10.2328 14.4016 11.3719C14.4016 12.5062 13.4781 13.4344 12.3391 13.4344ZM27.4516 26.4516H23.8937V20.8828C23.8937 19.5562 23.8703 17.8453 22.0422 17.8453C20.1906 17.8453 19.9094 19.2937 19.9094 20.7891V26.4516H16.3563V14.9953H19.7687V16.5609H19.8156C20.2891 15.6609 21.4516 14.7094 23.1813 14.7094C26.7859 14.7094 27.4516 17.0813 27.4516 20.1656V26.4516Z" fill="#4E4E4E"/>
</g>
<defs>
<clipPath id="clip0_147_390">
<rect width="24" height="24" fill="white" transform="translate(7 6)"/>
</clipPath>
</defs>
</svg>
