<svg width="37" height="36" viewBox="0 0 37 36" fill="none" xmlns="http://www.w3.org/2000/svg">
<circle cx="18" cy="18" r="18" fill="#D9D9D9"/>
<path d="M23.6921 17.1235C23.5887 17.074 23.4837 17.0263 23.3774 16.9806C23.1921 13.5673 21.327 11.6131 18.1952 11.5931C18.181 11.593 18.1669 11.593 18.1528 11.593C16.2795 11.593 14.7216 12.3926 13.7628 13.8476L15.4851 15.0291C16.2014 13.9423 17.3257 13.7106 18.1536 13.7106C18.1631 13.7106 18.1727 13.7106 18.1822 13.7107C19.2134 13.7173 19.9915 14.0171 20.4951 14.6018C20.8616 15.0274 21.1067 15.6156 21.2281 16.358C20.3139 16.2026 19.3251 16.1548 18.2681 16.2154C15.2906 16.3869 13.3764 18.1235 13.505 20.5365C13.5702 21.7605 14.18 22.8135 15.2219 23.5014C16.1028 24.0829 17.2374 24.3673 18.4165 24.3029C19.9738 24.2175 21.1954 23.6234 22.0476 22.537C22.6949 21.712 23.1042 20.6429 23.285 19.2957C24.0271 19.7436 24.5771 20.333 24.8809 21.0415C25.3974 22.2459 25.4275 24.225 23.8126 25.8385C22.3978 27.252 20.697 27.8635 18.1267 27.8824C15.2755 27.8612 13.1192 26.9469 11.7173 25.1646C10.4044 23.4958 9.72596 21.0852 9.70065 18C9.72596 14.9147 10.4044 12.5042 11.7173 10.8353C13.1192 9.05311 15.2755 8.13875 18.1266 8.11756C20.9985 8.13891 23.1924 9.05767 24.648 10.8485C25.3618 11.7267 25.8999 12.8311 26.2546 14.1188L28.273 13.5803C27.843 11.9953 27.1664 10.6295 26.2456 9.49675C24.3795 7.20084 21.6503 6.02439 18.1337 6H18.1196C14.6102 6.02431 11.9115 7.20522 10.0985 9.50991C8.48524 11.5608 7.65305 14.4145 7.62509 17.9916L7.625 18L7.62509 18.0084C7.65305 21.5855 8.48524 24.4393 10.0985 26.4901C11.9115 28.7948 14.6102 29.9757 18.1196 30H18.1337C21.2538 29.9784 23.453 29.1615 25.2647 27.3514C27.6351 24.9832 27.5637 22.0149 26.7825 20.1926C26.222 18.8859 25.1534 17.8245 23.6921 17.1235ZM18.3051 22.1884C17.0001 22.2619 15.6443 21.6761 15.5774 20.4215C15.5279 19.4913 16.2395 18.4532 18.3851 18.3296C18.6309 18.3154 18.872 18.3085 19.1089 18.3085C19.8883 18.3085 20.6174 18.3842 21.2802 18.5291C21.033 21.6169 19.5828 22.1182 18.3051 22.1884Z" fill="#4E4E4E"/>
</svg>
