<svg width="37" height="36" viewBox="0 0 37 36" fill="none" xmlns="http://www.w3.org/2000/svg">
<circle cx="18" cy="18" r="18" fill="#D9D9D9"/>
<g clip-path="url(#clip0_147_375)">
<path d="M18 6C24.6274 6 30 11.3726 30 18C30 24.1352 25.3955 29.1944 19.4538 29.9121V21.667L22.7001 21.667L23.3734 18H19.4538V16.7031C19.4538 15.7342 19.6439 15.0634 20.0799 14.6348C20.5159 14.2063 21.1979 14.0199 22.1817 14.0199C22.4307 14.0199 22.6599 14.0224 22.8633 14.0274C23.1591 14.0346 23.4002 14.047 23.568 14.0647V10.7405C23.501 10.7218 23.4218 10.7032 23.3331 10.6849C23.1321 10.6433 22.8822 10.6032 22.6136 10.5681C22.0523 10.4945 21.4093 10.4423 20.9594 10.4423C19.1424 10.4423 17.7692 10.831 16.8107 11.6362C15.6539 12.6079 15.1011 14.1862 15.1011 16.4199V18H12.6266V21.667H15.1011V29.6466C9.87432 28.3498 6 23.6277 6 18C6 11.3726 11.3726 6 18 6Z" fill="#4E4E4E"/>
</g>
<defs>
<clipPath id="clip0_147_375">
<rect width="24" height="24" fill="white" transform="translate(6 6)"/>
</clipPath>
</defs>
</svg>
