<svg width="37" height="36" viewBox="0 0 37 36" fill="none" xmlns="http://www.w3.org/2000/svg">
<circle cx="18" cy="18" r="18" fill="#D9D9D9"/>
<g clip-path="url(#clip0_147_393)">
<path fill-rule="evenodd" clip-rule="evenodd" d="M29.7466 10.8341C30.119 11.2088 30.3864 11.6748 30.5221 12.1854C31.0239 14.07 31.0239 18 31.0239 18C31.0239 18 31.0239 21.93 30.5221 23.8145C30.3864 24.3251 30.119 24.7911 29.7466 25.1658C29.3743 25.5406 28.91 25.811 28.4003 25.95C26.5239 26.4545 19.0239 26.4545 19.0239 26.4545C19.0239 26.4545 11.5239 26.4545 9.64756 25.95C9.13786 25.811 8.67358 25.5406 8.30121 25.1658C7.92884 24.7911 7.66143 24.3251 7.52574 23.8145C7.02393 21.93 7.02393 18 7.02393 18C7.02393 18 7.02393 14.07 7.52574 12.1854C7.66143 11.6748 7.92884 11.2088 8.30121 10.8341C8.67358 10.4593 9.13786 10.1889 9.64756 10.05C11.5239 9.54541 19.0239 9.54541 19.0239 9.54541C19.0239 9.54541 26.5239 9.54541 28.4003 10.05C28.91 10.1889 29.3743 10.4593 29.7466 10.8341ZM22.8421 18L16.5694 14.4314V21.5686L22.8421 18Z" fill="#4E4E4E"/>
</g>
<defs>
<clipPath id="clip0_147_393">
<rect width="24" height="24" fill="white" transform="translate(7 6)"/>
</clipPath>
</defs>
</svg>
