<svg width="37" height="36" viewBox="0 0 37 36" fill="none" xmlns="http://www.w3.org/2000/svg">
<circle cx="18" cy="18" r="18" fill="#D9D9D9"/>
<g clip-path="url(#clip0_147_387)">
<path fill-rule="evenodd" clip-rule="evenodd" d="M31 18C31 24.6274 25.6274 30 19 30C12.3726 30 7 24.6274 7 18C7 11.3726 12.3726 6 19 6C25.6274 6 31 11.3726 31 18ZM19.43 14.8589C18.2628 15.3444 15.9301 16.3492 12.4319 17.8733C11.8638 18.0992 11.5663 18.3202 11.5392 18.5363C11.4934 18.9015 11.9507 19.0453 12.5735 19.2411C12.6582 19.2678 12.746 19.2954 12.8359 19.3246C13.4486 19.5238 14.2728 19.7568 14.7013 19.766C15.0899 19.7744 15.5237 19.6142 16.0026 19.2853C19.2712 17.079 20.9584 15.9638 21.0643 15.9398C21.139 15.9228 21.2426 15.9015 21.3128 15.9638C21.3829 16.0262 21.376 16.1443 21.3686 16.176C21.3233 16.3691 19.5281 18.0381 18.5991 18.9018C18.3095 19.171 18.1041 19.362 18.0621 19.4056C17.968 19.5034 17.8721 19.5958 17.78 19.6846C17.2108 20.2333 16.7839 20.6448 17.8036 21.3168C18.2936 21.6397 18.6858 21.9067 19.0769 22.1731C19.5042 22.4641 19.9303 22.7543 20.4816 23.1157C20.6221 23.2078 20.7562 23.3034 20.8869 23.3965C21.3841 23.751 21.8307 24.0694 22.3826 24.0186C22.7032 23.9891 23.0345 23.6876 23.2027 22.7884C23.6002 20.6632 24.3816 16.0585 24.5622 14.161C24.578 13.9947 24.5581 13.782 24.5422 13.6886C24.5262 13.5952 24.4928 13.4621 24.3714 13.3636C24.2276 13.2469 24.0056 13.2223 23.9064 13.2241C23.455 13.232 22.7626 13.4728 19.43 14.8589Z" fill="#4E4E4E"/>
</g>
<defs>
<clipPath id="clip0_147_387">
<rect width="24" height="24" fill="white" transform="translate(7 6)"/>
</clipPath>
</defs>
</svg>
