<svg width="39" height="36" viewBox="0 0 39 36" fill="none" xmlns="http://www.w3.org/2000/svg">
<g clip-path="url(#clip0_11_90)">
<rect width="38.1176" height="36" rx="18" fill="#666666"/>
<path d="M22.7501 9.21967C22.4572 8.92678 21.9823 8.92678 21.6894 9.21967C21.3965 9.51256 21.3965 9.98744 21.6894 10.2803L22.1591 10.75L21.6894 11.2197C21.3965 11.5126 21.3965 11.9874 21.6894 12.2803C21.9823 12.5732 22.4572 12.5732 22.7501 12.2803L23.2197 11.8107L23.6894 12.2803C23.9823 12.5732 24.4572 12.5732 24.7501 12.2803C25.0429 11.9874 25.0429 11.5126 24.7501 11.2197L24.2804 10.75L24.7501 10.2803C25.0429 9.98744 25.0429 9.51256 24.7501 9.21967C24.4572 8.92678 23.9823 8.92678 23.6894 9.21967L23.2197 9.68934L22.7501 9.21967Z" fill="#F79907"/>
<path d="M20.3316 11.048C20.8345 10.7577 20.8401 9.91486 20.2652 9.83294C18.3413 9.55879 16.315 9.90295 14.5015 10.9499C10.1969 13.4352 8.72199 18.9395 11.2073 23.2442C13.6926 27.5488 19.1969 29.0237 23.5015 26.5384C25.315 25.4914 26.6262 23.9086 27.3507 22.1054C27.5672 21.5666 26.8345 21.15 26.3316 21.4403C23.4619 23.0972 19.7923 22.1139 18.1355 19.2442C16.4786 16.3744 17.4619 12.7049 20.3316 11.048Z" fill="white"/>
<path d="M21.6894 15.2197C21.9823 14.9268 22.4572 14.9268 22.7501 15.2197L23.2197 15.6893L23.6894 15.2197C23.9823 14.9268 24.4572 14.9268 24.7501 15.2197C25.0429 15.5126 25.0429 15.9874 24.7501 16.2803L24.2804 16.75L24.7501 17.2197C25.0429 17.5126 25.0429 17.9874 24.7501 18.2803C24.4572 18.5732 23.9823 18.5732 23.6894 18.2803L23.2197 17.8107L22.7501 18.2803C22.4572 18.5732 21.9823 18.5732 21.6894 18.2803C21.3965 17.9874 21.3965 17.5126 21.6894 17.2197L22.1591 16.75L21.6894 16.2803C21.3965 15.9874 21.3965 15.5126 21.6894 15.2197Z" fill="#F79907"/>
<path d="M27.7501 13.2197C27.4572 12.9268 26.9823 12.9268 26.6894 13.2197C26.3965 13.5126 26.3965 13.9874 26.6894 14.2803L27.1591 14.75L26.6894 15.2197C26.3965 15.5126 26.3965 15.9874 26.6894 16.2803C26.9823 16.5732 27.4572 16.5732 27.7501 16.2803L28.2197 15.8107L28.6894 16.2803C28.9823 16.5732 29.4572 16.5732 29.7501 16.2803C30.0429 15.9874 30.0429 15.5126 29.7501 15.2197L29.2804 14.75L29.7501 14.2803C30.0429 13.9874 30.0429 13.5126 29.7501 13.2197C29.4572 12.9268 28.9823 12.9268 28.6894 13.2197L28.2197 13.6893L27.7501 13.2197Z" fill="#F79907"/>
</g>
<rect x="0.5" y="0.5" width="37.1176" height="35" rx="17.5" stroke="#4E4E4E"/>
<defs>
<clipPath id="clip0_11_90">
<rect width="38.1176" height="36" rx="18" fill="white"/>
</clipPath>
</defs>
</svg>
