<svg width="16" height="16" viewBox="0 0 16 16" fill="none" xmlns="http://www.w3.org/2000/svg">
<path d="M14 4C14 5.10457 13.1046 6 12 6C11.3432 6 10.7603 5.6834 10.3957 5.19449L5.91852 7.43309C5.97154 7.61282 6 7.80309 6 8C6 8.19691 5.97154 8.38718 5.91852 8.56691L10.3957 10.8055C10.7603 10.3166 11.3432 10 12 10C13.1046 10 14 10.8954 14 12C14 13.1046 13.1046 14 12 14C10.8954 14 10 13.1046 10 12C10 11.91 10.006 11.8213 10.0175 11.7344L5.44306 9.44721C5.42935 9.44036 5.41609 9.43296 5.4033 9.42505C5.04226 9.7806 4.54675 10 4 10C2.89543 10 2 9.10457 2 8C2 6.89543 2.89543 6 4 6C4.54675 6 5.04226 6.21939 5.40329 6.57495C5.41609 6.56704 5.42935 6.55964 5.44306 6.55279L10.0175 4.26558C10.006 4.17869 10 4.09004 10 4C10 2.89543 10.8954 2 12 2C13.1046 2 14 2.89543 14 4Z" fill="#EBEBEB"/>
</svg>
