<svg width="38" height="36" viewBox="0 0 38 36" fill="none" xmlns="http://www.w3.org/2000/svg">
<g clip-path="url(#clip0_1_942)">
<rect width="38" height="36" rx="18" fill="#DBDBDB"/>
<path d="M18.7501 8C19.1643 8 19.5001 8.33579 19.5001 8.75V9.75C19.5001 10.1642 19.1643 10.5 18.7501 10.5C18.3359 10.5 18.0001 10.1642 18.0001 9.75V8.75C18.0001 8.33579 18.3359 8 18.7501 8Z" fill="#F79907"/>
<path d="M24.7501 17.75C24.7501 21.0637 22.0638 23.75 18.7501 23.75C15.4364 23.75 12.7501 21.0637 12.7501 17.75C12.7501 14.4363 15.4364 11.75 18.7501 11.75C22.0638 11.75 24.7501 14.4363 24.7501 17.75Z" fill="#F79907"/>
<path d="M19.5001 25.75C19.5001 25.3358 19.1643 25 18.7501 25C18.3359 25 18.0001 25.3358 18.0001 25.75V26.75C18.0001 27.1642 18.3359 27.5 18.7501 27.5C19.1643 27.5 19.5001 27.1642 19.5001 26.75V25.75Z" fill="#F79907"/>
<path d="M27.3996 12.915C27.6068 13.2738 27.4838 13.7325 27.1251 13.9396L26.2591 14.4396C25.9004 14.6467 25.4417 14.5238 25.2346 14.165C25.0275 13.8063 25.1504 13.3476 25.5091 13.1405L26.3751 12.6405C26.7338 12.4334 27.1925 12.5563 27.3996 12.915Z" fill="#F79907"/>
<path d="M10.3751 13.9396C10.0164 13.7325 9.8935 13.2738 10.1006 12.915C10.3077 12.5563 10.7664 12.4334 11.1251 12.6405L11.9912 13.1405C12.3499 13.3476 12.4728 13.8063 12.2657 14.165C12.0586 14.5238 11.5999 14.6467 11.2412 14.4396L10.3751 13.9396Z" fill="#F79907"/>
<path d="M10.1006 22.7251C9.8935 22.3664 10.0164 21.9077 10.3751 21.7006L11.2412 21.2006C11.5999 20.9935 12.0586 21.1164 12.2657 21.4751C12.4728 21.8338 12.3499 22.2925 11.9912 22.4996L11.1251 22.9996C10.7664 23.2067 10.3077 23.0838 10.1006 22.7251Z" fill="#F79907"/>
<path d="M27.1251 21.7006C27.4838 21.9077 27.6068 22.3664 27.3996 22.7251C27.1925 23.0838 26.7338 23.2067 26.3751 22.9996L25.5091 22.4996C25.1504 22.2925 25.0275 21.8338 25.2346 21.4751C25.4417 21.1164 25.9004 20.9935 26.2591 21.2006L27.1251 21.7006Z" fill="#F79907"/>
</g>
<rect x="0.5" y="0.5" width="37" height="35" rx="17.5" stroke="#4E4E4E"/>
<defs>
<clipPath id="clip0_1_942">
<rect width="38" height="36" rx="18" fill="white"/>
</clipPath>
</defs>
</svg>
