<svg width="24" height="24" viewBox="0 0 24 24" fill="none" xmlns="http://www.w3.org/2000/svg">
<path fill-rule="evenodd" clip-rule="evenodd" d="M8.3975 2.3641C8.04625 2.14457 7.58353 2.25135 7.364 2.6026C7.14447 2.95385 7.25125 3.41657 7.6025 3.6361L9.7849 5.0001H6C3.79086 5.0001 2 6.79096 2 9.0001V17.0001C2 19.2092 3.79086 21.0001 6 21.0001H18C20.2091 21.0001 22 19.2092 22 17.0001V9.0001C22 6.79096 20.2091 5.0001 18 5.0001H14.2151L16.3975 3.6361C16.7488 3.41657 16.8555 2.95385 16.636 2.6026C16.4165 2.25135 15.9538 2.14457 15.6025 2.3641L12 4.61566L8.3975 2.3641ZM8.5 10.6132V15.387C8.5 17.0719 10.4261 18.0769 11.864 17.1423L15.5365 14.7553C16.8212 13.9203 16.8212 12.0799 15.5365 11.2449L11.864 8.85794C10.4261 7.92334 8.5 8.92831 8.5 10.6132Z" fill="#fb6002"/>
</svg>
