<svg width="36" height="36" viewBox="0 0 36 36" fill="none" xmlns="http://www.w3.org/2000/svg">
<path fill-rule="evenodd" clip-rule="evenodd" d="M17.9998 19.3499C22.349 19.3499 25.8748 15.8242 25.8748 11.4749C25.8748 7.12573 22.349 3.6 17.9998 3.6C13.6506 3.6 10.1249 7.12573 10.1249 11.4749C10.1249 15.8242 13.6506 19.3499 17.9998 19.3499ZM17.9998 16.6499C20.8579 16.6499 23.1748 14.333 23.1748 11.4749C23.1748 8.6169 20.8579 6.3 17.9998 6.3C15.1418 6.3 12.8249 8.6169 12.8249 11.4749C12.8249 14.333 15.1418 16.6499 17.9998 16.6499Z" fill="#F79907"/>
<path fill-rule="evenodd" clip-rule="evenodd" d="M8.33869 33.1902C3.32527 29.9948 0 24.3857 0 18C0 8.05887 8.05887 0 18 0C27.9411 0 36 8.05887 36 18C36 24.3865 32.674 29.9962 27.6595 33.1913C26.727 33.8507 25.6059 34.4132 24.3455 34.8496C22.3721 35.5932 20.2335 36 18 36C15.7672 36 13.6294 35.5935 11.6564 34.8504C10.3944 34.4136 9.27207 33.8504 8.33869 33.1902ZM12.5927 32.3171C14.1286 32.8416 15.9726 33.1647 17.9999 33.1647C20.028 33.1647 21.8727 32.8413 23.4089 32.3164C24.3821 31.9486 25.308 31.4843 26.1749 30.9353C27.509 29.9736 27.8998 29.0284 27.8998 28.3947C27.8998 27.669 27.3873 26.5348 25.5325 25.4351C23.7366 24.3704 21.0797 23.6247 17.9999 23.6247C14.9201 23.6247 12.2632 24.3704 10.4674 25.4351C8.61257 26.5348 8.1 27.669 8.1 28.3947C8.1 29.0282 8.49059 29.973 9.82363 30.9343C10.6914 31.4841 11.6184 31.9489 12.5927 32.3171ZM5.62121 26.9938C6.72721 23.5379 11.8488 20.9247 17.9999 20.9247C24.1511 20.9247 29.2728 23.538 30.3787 26.994C32.2161 24.4695 33.3 21.3613 33.3 18C33.3 9.55004 26.45 2.7 18 2.7C9.55004 2.7 2.7 9.55004 2.7 18C2.7 21.3612 3.78389 24.4693 5.62121 26.9938Z" fill="#F79907"/>
</svg>
