<svg width="24" height="24" viewBox="0 0 24 24" fill="none" xmlns="http://www.w3.org/2000/svg">
<g clip-path="url(#clip0_1_1164)">
<path fill-rule="evenodd" clip-rule="evenodd" d="M12.5751 23.25C18.652 23.25 23.5783 18.549 23.5783 12.75C23.5783 6.95101 18.652 2.25 12.5751 2.25C6.49819 2.25 1.57188 6.95101 1.57188 12.75C1.57188 14.6332 2.09139 16.4005 3.0011 17.9287L1.57188 23.25L7.32095 21.9778C8.88224 22.7891 10.6723 23.25 12.5751 23.25ZM12.5751 21.6346C17.7171 21.6346 21.8855 17.6568 21.8855 12.75C21.8855 7.84316 17.7171 3.86538 12.5751 3.86538C7.43309 3.86538 3.26468 7.84316 3.26468 12.75C3.26468 14.6445 3.8861 16.4006 4.94503 17.8427L4.11108 20.8269L7.29349 20.0677C8.7942 21.0559 10.6138 21.6346 12.5751 21.6346Z" fill="#BFC8D0"/>
<path d="M22.0064 12C22.0064 16.9706 17.7839 21 12.5751 21C10.5884 21 8.7451 20.4138 7.22491 19.4127L4.00117 20.1818L4.84594 17.1588C3.77326 15.698 3.14378 13.9192 3.14378 12C3.14378 7.02944 7.36632 3 12.5751 3C17.7839 3 22.0064 7.02944 22.0064 12Z" fill="url(#paint0_linear_1_1164)"/>
<path fill-rule="evenodd" clip-rule="evenodd" d="M12.5751 22.5C18.652 22.5 23.5783 17.799 23.5783 12C23.5783 6.20101 18.652 1.5 12.5751 1.5C6.49819 1.5 1.57188 6.20101 1.57188 12C1.57188 13.8832 2.09139 15.6505 3.0011 17.1787L1.57188 22.5L7.32095 21.2278C8.88224 22.0391 10.6723 22.5 12.5751 22.5ZM12.5751 20.8846C17.7171 20.8846 21.8855 16.9068 21.8855 12C21.8855 7.09316 17.7171 3.11538 12.5751 3.11538C7.43309 3.11538 3.26468 7.09316 3.26468 12C3.26468 13.8945 3.8861 15.6506 4.94503 17.0927L4.11108 20.0769L7.29349 19.3177C8.7942 20.3059 10.6138 20.8846 12.5751 20.8846Z" fill="white"/>
<path d="M9.82431 7.12504C9.5627 6.6236 9.16137 6.668 8.75594 6.668C8.03137 6.668 6.90157 7.49621 6.90157 9.03759C6.90157 10.3008 7.48489 11.6836 9.45051 13.7522C11.3475 15.7485 13.84 16.7812 15.9092 16.7461C17.9785 16.7109 18.4042 15.0117 18.4042 14.4379C18.4042 14.1835 18.2388 14.0566 18.1248 14.0221C17.4197 13.6992 16.1192 13.0975 15.8233 12.9844C15.5273 12.8714 15.3728 13.0243 15.2768 13.1075C15.0084 13.3515 14.4765 14.0707 14.2944 14.2325C14.1122 14.3942 13.8407 14.3124 13.7277 14.2512C13.3119 14.092 12.1844 13.6134 11.2857 12.7821C10.1743 11.754 10.1091 11.4002 9.89966 11.0854C9.73215 10.8335 9.85507 10.6789 9.91641 10.6114C10.1559 10.3477 10.4865 9.94061 10.6348 9.73832C10.7831 9.53602 10.6654 9.22889 10.5947 9.03759C10.291 8.21488 10.0336 7.52618 9.82431 7.12504Z" fill="white"/>
</g>
<defs>
<linearGradient id="paint0_linear_1_1164" x1="20.8275" y1="5.25" x2="3.91648" y2="21.79" gradientUnits="userSpaceOnUse">
<stop stop-color="#5BD066"/>
<stop offset="1" stop-color="#27B43E"/>
</linearGradient>
<clipPath id="clip0_1_1164">
<rect width="24" height="24" fill="white"/>
</clipPath>
</defs>
</svg>
