<svg width="56" height="56" viewBox="0 0 56 56" fill="none" xmlns="http://www.w3.org/2000/svg">
<rect width="56" height="56" rx="12" fill="#4EC95C"/>
<path fill-rule="evenodd" clip-rule="evenodd" d="M28 48.625C38.6315 48.625 47.25 40.0065 47.25 29.375C47.25 18.7435 38.6315 10.125 28 10.125C17.3685 10.125 8.75 18.7435 8.75 29.375C8.75 32.8275 9.65887 36.0676 11.2504 38.8693L8.75 48.625L18.8079 46.2927C21.5394 47.78 24.671 48.625 28 48.625ZM28 45.6635C36.9959 45.6635 44.2885 38.3709 44.2885 29.375C44.2885 20.3791 36.9959 13.0865 28 13.0865C19.0041 13.0865 11.7115 20.3791 11.7115 29.375C11.7115 32.8483 12.7987 36.0678 14.6513 38.7116L13.1923 44.1827L18.7599 42.7908C21.3854 44.6025 24.5688 45.6635 28 45.6635Z" fill="#BFC8D0"/>
<path d="M44.5 28C44.5 37.1127 37.1127 44.5 28 44.5C24.5242 44.5 21.2995 43.4253 18.6399 41.59L13 43L14.4779 37.4578C12.6013 34.7797 11.5 31.5184 11.5 28C11.5 18.8873 18.8873 11.5 28 11.5C37.1127 11.5 44.5 18.8873 44.5 28Z" fill="url(#paint0_linear_1837_20900)"/>
<path fill-rule="evenodd" clip-rule="evenodd" d="M28 47.25C38.6315 47.25 47.25 38.6315 47.25 28C47.25 17.3685 38.6315 8.75 28 8.75C17.3685 8.75 8.75 17.3685 8.75 28C8.75 31.4525 9.65887 34.6926 11.2504 37.4943L8.75 47.25L18.8079 44.9177C21.5394 46.405 24.671 47.25 28 47.25ZM28 44.2885C36.9959 44.2885 44.2885 36.9959 44.2885 28C44.2885 19.0041 36.9959 11.7115 28 11.7115C19.0041 11.7115 11.7115 19.0041 11.7115 28C11.7115 31.4733 12.7987 34.6928 14.6513 37.3366L13.1923 42.8077L18.7599 41.4158C21.3854 43.2275 24.5688 44.2885 28 44.2885Z" fill="white"/>
<path d="M23.1875 19.0624C22.7298 18.1431 22.0277 18.2245 21.3184 18.2245C20.0508 18.2245 18.0742 19.7429 18.0742 22.5687C18.0742 24.8847 19.0947 27.4198 22.5336 31.2122C25.8523 34.8721 30.2129 36.7654 33.833 36.701C37.4531 36.6365 38.198 33.5213 38.198 32.4693C38.198 32.003 37.9086 31.7703 37.7092 31.7071C36.4756 31.115 34.2003 30.0119 33.6826 29.8046C33.1649 29.5974 32.8946 29.8777 32.7266 30.0302C32.2571 30.4776 31.3265 31.7961 31.0078 32.0927C30.6892 32.3893 30.2141 32.2392 30.0164 32.1271C29.289 31.8351 27.3165 30.9578 25.7443 29.4337C23.7998 27.5488 23.6857 26.9003 23.3194 26.323C23.0263 25.8612 23.2414 25.5778 23.3487 25.454C23.7676 24.9706 24.3461 24.2243 24.6055 23.8534C24.8649 23.4825 24.659 22.9195 24.5354 22.5688C24.0039 21.0605 23.5537 19.7978 23.1875 19.0624Z" fill="white"/>
<defs>
<linearGradient id="paint0_linear_1837_20900" x1="42.4375" y1="15.625" x2="11.5" y2="44.5" gradientUnits="userSpaceOnUse">
<stop stop-color="#5BD066"/>
<stop offset="1" stop-color="#27B43E"/>
</linearGradient>
</defs>
</svg>
