<svg width="56" height="56" viewBox="0 0 56 56" fill="none" xmlns="http://www.w3.org/2000/svg">
<rect width="56" height="56" rx="12" fill="#1877F2"/>
<g clip-path="url(#clip0_1837_20950)">
<path d="M51 28.5C51 15.5213 40.4787 5 27.5 5C14.5213 5 4 15.5213 4 28.5C4 40.2293 12.5936 49.9516 23.8281 51.7145V35.293H17.8613V28.5H23.8281V23.3227C23.8281 17.433 27.3366 14.1797 32.7044 14.1797C35.2747 14.1797 37.9648 14.6387 37.9648 14.6387V20.4219H35.0016C32.0825 20.4219 31.1719 22.2335 31.1719 24.0937V28.5H37.6895L36.6476 35.293H31.1719V51.7145C42.4064 49.9516 51 40.2293 51 28.5Z" fill="#1877F2"/>
<path d="M36.6476 35.293L37.6895 28.5H31.1719V24.0938C31.1719 22.2353 32.0825 20.4219 35.0016 20.4219H37.9648V14.6387C37.9648 14.6387 35.2757 14.1797 32.7044 14.1797C27.3366 14.1797 23.8281 17.433 23.8281 23.3227V28.5H17.8613V35.293H23.8281V51.7145C26.2612 52.0952 28.7388 52.0952 31.1719 51.7145V35.293H36.6476Z" fill="white"/>
</g>
<defs>
<clipPath id="clip0_1837_20950">
<rect width="47" height="47" fill="white" transform="translate(4 5)"/>
</clipPath>
</defs>
</svg>
