<svg width="56" height="56" viewBox="0 0 56 56" fill="none" xmlns="http://www.w3.org/2000/svg">
<rect width="56" height="56" rx="12" fill="#2AABEE"/>
<g clip-path="url(#clip0_1838_20999)">
<path d="M28.5 54C43.1355 54 55 42.1355 55 27.5C55 12.8645 43.1355 1 28.5 1C13.8645 1 2 12.8645 2 27.5C2 42.1355 13.8645 54 28.5 54Z" fill="url(#paint0_linear_1838_20999)"/>
<path fill-rule="evenodd" clip-rule="evenodd" d="M13.996 27.2201C21.7213 23.8544 26.8727 21.6354 29.4502 20.5634C36.8095 17.5024 38.3387 16.9706 39.3354 16.9531C39.5547 16.9492 40.0448 17.0035 40.3623 17.2612C40.6304 17.4787 40.7042 17.7726 40.7395 17.9788C40.7748 18.1851 40.8187 18.6549 40.7838 19.022C40.385 23.2123 38.6594 33.381 37.7815 38.0742C37.41 40.0601 36.6785 40.7259 35.9704 40.7911C34.4315 40.9327 33.263 39.774 31.7724 38.797C29.4401 37.2681 28.1225 36.3164 25.8585 34.8245C23.2422 33.1003 24.9382 32.1527 26.4293 30.604C26.8195 30.1987 33.6 24.0314 33.7312 23.4719C33.7476 23.4019 33.7629 23.1411 33.6079 23.0034C33.453 22.8657 33.2243 22.9128 33.0592 22.9502C32.8253 23.0033 29.0994 25.466 21.8814 30.3384C20.8238 31.0646 19.8658 31.4184 19.0076 31.3999C18.0614 31.3794 16.2413 30.8649 14.8882 30.4251C13.2287 29.8856 11.9097 29.6004 12.0246 28.6842C12.0844 28.207 12.7415 27.719 13.996 27.2201Z" fill="white"/>
</g>
<defs>
<linearGradient id="paint0_linear_1838_20999" x1="2652" y1="1" x2="2652" y2="5261.69" gradientUnits="userSpaceOnUse">
<stop stop-color="#2AABEE"/>
<stop offset="1" stop-color="#229ED9"/>
</linearGradient>
<clipPath id="clip0_1838_20999">
<rect width="53" height="53" fill="white" transform="translate(2 1)"/>
</clipPath>
</defs>
</svg>
