<svg width="56" height="56" viewBox="0 0 56 56" fill="none" xmlns="http://www.w3.org/2000/svg">
<rect width="56" height="56" rx="12" fill="#FF0302"/>
<g clip-path="url(#clip0_1837_20962)">
<path d="M47.2027 18.3092C46.9766 17.4582 46.5309 16.6815 45.9103 16.0569C45.2896 15.4323 44.5158 14.9817 43.6663 14.7501C40.5391 13.9092 28.0391 13.9092 28.0391 13.9092C28.0391 13.9092 15.5391 13.9092 12.4118 14.7501C11.5623 14.9817 10.7885 15.4323 10.1679 16.0569C9.54726 16.6815 9.10157 17.4582 8.87543 18.3092C8.03906 21.4501 8.03906 28.0001 8.03906 28.0001C8.03906 28.0001 8.03906 34.5501 8.87543 37.691C9.10157 38.542 9.54726 39.3186 10.1679 39.9432C10.7885 40.5678 11.5623 41.0185 12.4118 41.2501C15.5391 42.091 28.0391 42.091 28.0391 42.091C28.0391 42.091 40.5391 42.091 43.6663 41.2501C44.5158 41.0185 45.2896 40.5678 45.9103 39.9432C46.5309 39.3186 46.9766 38.542 47.2027 37.691C48.0391 34.5501 48.0391 28.0001 48.0391 28.0001C48.0391 28.0001 48.0391 21.4501 47.2027 18.3092Z" fill="white"/>
<path d="M23.9492 33.9477V22.0522L34.4038 28L23.9492 33.9477Z" fill="#FF0302"/>
</g>
<defs>
<clipPath id="clip0_1837_20962">
<rect width="40" height="40" fill="white" transform="translate(8 8)"/>
</clipPath>
</defs>
</svg>
