<svg width="56" height="56" viewBox="0 0 56 56" fill="none" xmlns="http://www.w3.org/2000/svg">
<rect width="56" height="56" rx="12" fill="#0A66C2"/>
<g clip-path="url(#clip0_1837_20993)">
<path d="M45.0472 8H10.9528C10.1697 8 9.4186 8.3111 8.86485 8.86485C8.3111 9.4186 8 10.1697 8 10.9528V45.0472C8 45.8303 8.3111 46.5814 8.86485 47.1352C9.4186 47.6889 10.1697 48 10.9528 48H45.0472C45.8303 48 46.5814 47.6889 47.1352 47.1352C47.6889 46.5814 48 45.8303 48 45.0472V10.9528C48 10.1697 47.6889 9.4186 47.1352 8.86485C46.5814 8.3111 45.8303 8 45.0472 8ZM19.9222 42.075H13.9083V22.9722H19.9222V42.075ZM16.9111 20.325C16.2289 20.3212 15.5632 20.1153 14.9979 19.7335C14.4326 19.3516 13.9931 18.8109 13.7348 18.1795C13.4765 17.5481 13.4111 16.8543 13.5467 16.1858C13.6824 15.5172 14.013 14.9038 14.4969 14.423C14.9808 13.9421 15.5964 13.6154 16.2658 13.4841C16.9352 13.3528 17.6285 13.4227 18.2583 13.685C18.888 13.9473 19.4259 14.3903 19.8041 14.958C20.1823 15.5258 20.3839 16.1928 20.3833 16.875C20.3898 17.3317 20.3042 17.7851 20.1317 18.208C19.9592 18.6309 19.7033 19.0148 19.3793 19.3368C19.0553 19.6587 18.6697 19.9121 18.2457 20.0819C17.8217 20.2517 17.3678 20.3344 16.9111 20.325ZM42.0889 42.0917H36.0778V31.6556C36.0778 28.5778 34.7694 27.6278 33.0806 27.6278C31.2972 27.6278 29.5472 28.9722 29.5472 31.7333V42.0917H23.5333V22.9861H29.3167V25.6333H29.3944C29.975 24.4583 32.0083 22.45 35.1111 22.45C38.4667 22.45 42.0917 24.4417 42.0917 30.275L42.0889 42.0917Z" fill="white"/>
</g>
<defs>
<clipPath id="clip0_1837_20993">
<rect width="40" height="40" fill="white" transform="translate(8 8)"/>
</clipPath>
</defs>
</svg>
