<svg width="56" height="56" viewBox="0 0 56 56" fill="none" xmlns="http://www.w3.org/2000/svg">
<rect width="56" height="56" rx="12" fill="url(#paint0_linear_1837_20969)"/>
<path d="M28.5446 5H28.4422C16.0477 5 6 15.0507 6 27.4488V27.5512C6 39.9493 16.0477 50 28.4422 50H28.5446C40.9391 50 50.9868 39.9493 50.9868 27.5512V27.4488C50.9868 15.0507 40.9391 5 28.5446 5Z" fill="url(#paint1_linear_1837_20969)"/>
<path d="M35.455 14.1553H21.5348C17.6891 14.1553 14.5605 17.2848 14.5605 21.1316V33.8703C14.5605 37.7171 17.6891 40.8466 21.5348 40.8466H35.455C39.3007 40.8466 42.4292 37.7171 42.4292 33.8703V21.1316C42.4292 17.2848 39.3007 14.1553 35.455 14.1553ZM17.0208 21.1316C17.0208 18.6422 19.0461 16.6163 21.5348 16.6163H35.455C37.9436 16.6163 39.9689 18.6422 39.9689 21.1316V33.8703C39.9689 36.3597 37.9436 38.3856 35.455 38.3856H21.5348C19.0461 38.3856 17.0208 36.3597 17.0208 33.8703V21.1316Z" fill="white"/>
<path d="M28.4951 33.9881C32.0712 33.9881 34.9823 31.0777 34.9823 27.4989C34.9823 23.9201 32.0728 21.0098 28.4951 21.0098C24.9173 21.0098 22.0078 23.9201 22.0078 27.4989C22.0078 31.0777 24.9173 33.9881 28.4951 33.9881ZM28.4951 23.4724C30.7158 23.4724 32.522 25.2791 32.522 27.5005C32.522 29.7219 30.7158 31.5286 28.4951 31.5286C26.2743 31.5286 24.4681 29.7219 24.4681 27.5005C24.4681 25.2791 26.2743 23.4724 28.4951 23.4724Z" fill="white"/>
<path d="M35.5799 22.0586C36.5429 22.0586 37.3278 21.275 37.3278 20.3102C37.3278 19.3453 36.5445 18.5618 35.5799 18.5618C34.6153 18.5618 33.832 19.3453 33.832 20.3102C33.832 21.275 34.6153 22.0586 35.5799 22.0586Z" fill="white"/>
<defs>
<linearGradient id="paint0_linear_1837_20969" x1="28" y1="0" x2="28" y2="56" gradientUnits="userSpaceOnUse">
<stop stop-color="#9139B2"/>
<stop offset="0.5" stop-color="#B1339C"/>
<stop offset="1" stop-color="#E7546D"/>
</linearGradient>
<linearGradient id="paint1_linear_1837_20969" x1="12.5724" y1="43.4257" x2="44.4238" y2="11.5852" gradientUnits="userSpaceOnUse">
<stop stop-color="#FAAD4F"/>
<stop offset="0.35" stop-color="#DD2A7B"/>
<stop offset="0.62" stop-color="#9537B0"/>
<stop offset="1" stop-color="#515BD4"/>
</linearGradient>
</defs>
</svg>
