<svg width="56" height="56" viewBox="0 0 56 56" fill="none" xmlns="http://www.w3.org/2000/svg">
<rect width="56" height="56" rx="12" fill="black"/>
<path d="M37.4875 26.5392C37.3152 26.4566 37.1402 26.3772 36.9629 26.3011C36.6542 20.6121 33.5456 17.3552 28.326 17.3219C28.3024 17.3217 28.2789 17.3217 28.2552 17.3217C25.1332 17.3217 22.5367 18.6544 20.9386 21.0793L23.8092 23.0485C25.0031 21.2371 26.8767 20.851 28.2566 20.851C28.2725 20.851 28.2885 20.851 28.3043 20.8511C30.0229 20.8621 31.3198 21.3618 32.1592 22.3363C32.77 23.0457 33.1786 24.026 33.3809 25.2633C31.8571 25.0043 30.2092 24.9247 28.4475 25.0257C23.485 25.3115 20.2946 28.2058 20.5089 32.2275C20.6176 34.2675 21.6339 36.0225 23.3704 37.169C24.8387 38.1381 26.7296 38.6121 28.6949 38.5048C31.2902 38.3625 33.3263 37.3723 34.7467 35.5617C35.8254 34.1867 36.5077 32.4048 36.809 30.1596C38.0459 30.906 38.9625 31.8883 39.4688 33.0692C40.3296 35.0765 40.3798 38.375 37.6884 41.0642C35.3302 43.42 32.4956 44.4392 28.2118 44.4706C23.4599 44.4354 19.866 42.9115 17.5294 39.941C15.3414 37.1596 14.2106 33.1421 14.1684 28C14.2106 22.8579 15.3414 18.8403 17.5294 16.0589C19.866 13.0885 23.4598 11.5646 28.2117 11.5293C32.9982 11.5649 36.6546 13.0961 39.0807 16.0808C40.2702 17.5445 41.1671 19.3852 41.7584 21.5313L45.1223 20.6338C44.4057 17.9921 43.2779 15.7158 41.7434 13.8279C38.6331 10.0014 34.0844 8.04066 28.2235 8H28.2C22.351 8.04051 17.8532 10.0087 14.8315 13.8499C12.1427 17.268 10.7557 22.0241 10.7091 27.9859L10.709 28L10.7091 28.0141C10.7557 33.9758 12.1427 38.7321 14.8315 42.1502C17.8532 45.9913 22.351 47.9596 28.2 48H28.2235C33.4236 47.964 37.089 46.6025 40.1086 43.5856C44.0592 39.6388 43.9402 34.6915 42.6381 31.6544C41.704 29.4765 39.9229 27.7075 37.4875 26.5392ZM28.5091 34.9806C26.3341 35.1031 24.0745 34.1269 23.9631 32.0358C23.8805 30.4854 25.0664 28.7554 28.6426 28.5493C29.0521 28.5257 29.454 28.5142 29.8488 28.5142C31.1477 28.5142 32.3629 28.6404 33.4677 28.8819C33.0556 34.0281 30.6386 34.8638 28.5091 34.9806Z" fill="white"/>
</svg>
