<svg width="56" height="56" viewBox="0 0 56 56" fill="none" xmlns="http://www.w3.org/2000/svg">
<rect width="56" height="56" rx="12" fill="url(#paint0_linear_1837_20969)"/>
<path d="M39.9581 18.5813C38.5342 18.5841 37.3765 17.4312 37.3737 16.0073C37.3709 14.5834 38.5238 13.4257 39.9483 13.4229C41.3729 13.4201 42.5306 14.5737 42.5334 15.9976C42.5355 17.4214 41.3826 18.5785 39.9581 18.5813Z" fill="white"/>
<path fill-rule="evenodd" clip-rule="evenodd" d="M28.5206 38.5385C22.4246 38.5503 17.4725 33.6183 17.4607 27.5209C17.4488 21.4249 22.3821 16.472 28.4781 16.4601C34.5754 16.4483 39.5282 21.3831 39.5401 27.4784C39.5519 33.5758 34.6172 38.5266 28.5206 38.5385ZM28.4857 20.334C24.529 20.3409 21.3261 23.5558 21.333 27.5132C21.3407 31.4714 24.5562 34.6737 28.5129 34.666C32.471 34.6584 35.674 31.4442 35.6663 27.4861C35.6586 23.5279 32.4431 20.3263 28.4857 20.334Z" fill="white"/>
<path fill-rule="evenodd" clip-rule="evenodd" d="M14.3802 7.15827C15.7456 6.62328 17.3081 6.25686 19.5957 6.14888C21.8889 6.03883 22.621 6.01374 28.4586 6.0026C34.2975 5.99146 35.0296 6.01374 37.3228 6.11544C39.6112 6.21436 41.1743 6.57521 42.5425 7.10464C43.9579 7.65008 45.1589 8.38432 46.3557 9.57622C47.5524 10.7695 48.2894 11.9663 48.8418 13.3797C49.3761 14.7465 49.7425 16.3076 49.8512 18.5966C49.9599 20.8892 49.9863 21.6206 49.9975 27.4589C50.0086 33.2965 49.9849 34.0293 49.8846 36.324C49.785 38.6109 49.4249 40.1748 48.8955 41.5423C48.3486 42.9578 47.6158 44.1587 46.4239 45.3555C45.232 46.553 44.0339 47.2893 42.6205 47.8424C41.2537 48.376 39.6927 48.7424 37.405 48.8518C35.1118 48.9605 34.3797 48.9863 28.5401 48.9974C22.7032 49.0085 21.9711 48.9863 19.6779 48.8852C17.3896 48.7849 15.8257 48.4248 14.4583 47.8961C13.0428 47.3485 11.8418 46.6164 10.6451 45.4238C9.44761 44.2312 8.70994 43.0337 8.15824 41.6203C7.62324 40.2542 7.25819 38.6924 7.14884 36.4054C7.03948 34.1115 7.01372 33.3787 7.00258 27.5411C6.9914 21.7028 7.0144 20.9714 7.1147 18.6781C7.21572 16.3891 7.57447 14.8259 8.1039 13.457C8.65071 12.0422 9.38354 10.8419 10.5768 9.64448C11.7687 8.44771 12.9668 7.70928 14.3802 7.15827ZM15.8536 44.2841C16.6122 44.576 17.7504 44.9243 19.8465 45.0156C22.1146 45.1138 22.7938 45.1354 28.5331 45.1242C34.2745 45.1138 34.9537 45.0894 37.2211 44.9828C39.3151 44.8832 40.4533 44.5307 41.2098 44.2353C42.2137 43.8431 42.9284 43.3743 43.6793 42.6227C44.4302 41.8683 44.8949 41.1515 45.2836 40.1476C45.5761 39.3883 45.9238 38.2494 46.015 36.1533C46.1146 33.8865 46.1355 33.2066 46.1244 27.4659C46.1139 21.7265 46.0895 21.0466 45.9816 18.7791C45.8826 16.6844 45.5309 15.5461 45.2348 14.7903C44.8426 13.7851 44.3752 13.0718 43.6215 12.3202C42.8678 11.5685 42.151 11.1053 41.1458 10.7166C40.3885 10.4233 39.2489 10.0764 37.1543 9.98512C34.8861 9.88551 34.2062 9.86529 28.4655 9.87645C22.7262 9.88759 22.0471 9.91057 19.7796 10.0179C17.6842 10.1175 16.5474 10.4693 15.7895 10.7653C14.7864 11.1575 14.0716 11.6235 13.32 12.378C12.5698 13.1324 12.1051 13.8478 11.7164 14.8537C11.4253 15.6116 11.0749 16.7513 10.985 18.846C10.8861 21.1142 10.8652 21.7941 10.8764 27.5334C10.8868 33.2742 10.9112 33.9541 11.0178 36.2202C11.116 38.3163 11.4705 39.4531 11.7652 40.2117C12.1574 41.2142 12.6248 41.9289 13.3779 42.6805C14.1323 43.4294 14.8491 43.8954 15.8536 44.2841Z" fill="white"/>
<defs>
<linearGradient id="paint0_linear_1837_20969" x1="28" y1="0" x2="28" y2="56" gradientUnits="userSpaceOnUse">
<stop stop-color="#9139B2"/>
<stop offset="0.5" stop-color="#B1339C"/>
<stop offset="1" stop-color="#E7546D"/>
</linearGradient>
</defs>
</svg>
